<svg width="30" height="30" viewBox="0 0 30 30" fill="none" xmlns="http://www.w3.org/2000/svg">
<path d="M25.5 0H4.5C3.30653 0 2.16193 0.499059 1.31802 1.38739C0.474106 2.27572 0 3.48055 0 4.73684V28.4211C0.000458035 28.7008 0.0715332 28.9755 0.205951 29.2168C0.340368 29.4582 0.533301 29.6576 0.765 29.7947C0.989183 29.9285 1.24232 29.9992 1.5 30C1.76923 29.9999 2.03347 29.9236 2.265 29.7789L9 25.4842C9.24895 25.3282 9.53549 25.2514 9.825 25.2632H25.5C26.6935 25.2632 27.8381 24.7641 28.682 23.8758C29.5259 22.9874 30 21.7826 30 20.5263V4.73684C30 3.48055 29.5259 2.27572 28.682 1.38739C27.8381 0.499059 26.6935 0 25.5 0ZM9 14.2105C8.70333 14.2105 8.41332 14.1179 8.16665 13.9444C7.91997 13.7709 7.72771 13.5243 7.61418 13.2358C7.50065 12.9473 7.47094 12.6298 7.52882 12.3235C7.5867 12.0173 7.72956 11.7359 7.93934 11.5151C8.14912 11.2943 8.41639 11.1439 8.70737 11.083C8.99834 11.022 9.29994 11.0533 9.57403 11.1728C9.84811 11.2923 10.0824 11.4947 10.2472 11.7544C10.412 12.014 10.5 12.3193 10.5 12.6316C10.5 13.0503 10.342 13.452 10.0607 13.7481C9.77936 14.0442 9.39782 14.2105 9 14.2105ZM15 14.2105C14.7033 14.2105 14.4133 14.1179 14.1666 13.9444C13.92 13.7709 13.7277 13.5243 13.6142 13.2358C13.5006 12.9473 13.4709 12.6298 13.5288 12.3235C13.5867 12.0173 13.7296 11.7359 13.9393 11.5151C14.1491 11.2943 14.4164 11.1439 14.7074 11.083C14.9983 11.022 15.2999 11.0533 15.574 11.1728C15.8481 11.2923 16.0824 11.4947 16.2472 11.7544C16.412 12.014 16.5 12.3193 16.5 12.6316C16.5 13.0503 16.342 13.452 16.0607 13.7481C15.7794 14.0442 15.3978 14.2105 15 14.2105ZM21 14.2105C20.7033 14.2105 20.4133 14.1179 20.1666 13.9444C19.92 13.7709 19.7277 13.5243 19.6142 13.2358C19.5006 12.9473 19.4709 12.6298 19.5288 12.3235C19.5867 12.0173 19.7296 11.7359 19.9393 11.5151C20.1491 11.2943 20.4164 11.1439 20.7074 11.083C20.9983 11.022 21.2999 11.0533 21.574 11.1728C21.8481 11.2923 22.0824 11.4947 22.2472 11.7544C22.412 12.014 22.5 12.3193 22.5 12.6316C22.5 13.0503 22.342 13.452 22.0607 13.7481C21.7794 14.0442 21.3978 14.2105 21 14.2105Z" fill="#C6C6C6"/>
</svg>
